<svg width="17" height="17" viewBox="0 0 17 17" fill="none" xmlns="http://www.w3.org/2000/svg">
<g clip-path="url(#clip0_1014_339)">
<path d="M6.63527 13.0674L14.7162 8.78165C14.8655 8.70249 14.9577 8.5462 14.9547 8.37727C14.9517 8.20206 14.8469 8.04464 14.6865 7.97415L6.19181 4.24217C6.08497 4.19524 5.9602 4.21981 5.87913 4.30375C5.7948 4.39108 5.77668 4.52295 5.83432 4.62978L7.74265 8.16657C7.85463 8.37409 7.86884 8.62057 7.78146 8.83959L6.23719 12.7101C6.19432 12.8176 6.22067 12.9403 6.30389 13.0207C6.3926 13.1063 6.52637 13.1252 6.63527 13.0674Z" fill="url(#paint0_linear_1014_339)"/>
<path d="M6.63527 13.0674L14.7162 8.78165C14.8655 8.70249 14.9577 8.5462 14.9547 8.37727C14.9517 8.20206 14.8469 8.04464 14.6865 7.97415L6.19181 4.24217C6.08497 4.19524 5.9602 4.21981 5.87913 4.30375C5.7948 4.39108 5.77668 4.52295 5.83432 4.62978L7.74265 8.16657C7.85463 8.37409 7.86884 8.62057 7.78146 8.83959L6.23719 12.7101C6.19432 12.8176 6.22067 12.9403 6.30389 13.0207C6.3926 13.1063 6.52637 13.1252 6.63527 13.0674Z" fill="url(#paint1_linear_1014_339)"/>
</g>
<defs>
<linearGradient id="paint0_linear_1014_339" x1="17.6249" y1="8.80797" x2="5.62523" y2="8.89972" gradientUnits="userSpaceOnUse">
<stop stop-color="#415EA6"/>
<stop offset="1" stop-color="#8868A1"/>
</linearGradient>
<linearGradient id="paint1_linear_1014_339" x1="17.6249" y1="8.80797" x2="5.62523" y2="8.89972" gradientUnits="userSpaceOnUse">
<stop stop-color="#415EA6"/>
<stop offset="1" stop-color="#8868A1"/>
</linearGradient>
<clipPath id="clip0_1014_339">
<rect width="12" height="12" fill="white" transform="translate(16.9688 8.33594) rotate(134)"/>
</clipPath>
</defs>
</svg>
