<svg width="19" height="13" viewBox="0 0 19 13" fill="none" xmlns="http://www.w3.org/2000/svg">
<path d="M7.98134 12.3066C7.80631 12.307 7.63295 12.2728 7.47118 12.2059C7.30941 12.1391 7.16243 12.041 7.03867 11.9173L1.38267 6.25994C1.25524 6.13703 1.15356 5.98998 1.08357 5.82736C1.01358 5.66474 0.976674 5.4898 0.975011 5.31277C0.973349 5.13573 1.00696 4.96014 1.07389 4.79623C1.14081 4.63232 1.23971 4.48338 1.36481 4.35811C1.48991 4.23283 1.63871 4.13372 1.80252 4.06656C1.96633 3.99941 2.14188 3.96554 2.31892 3.96696C2.49596 3.96837 2.67094 4.00502 2.83366 4.07479C2.99638 4.14455 3.14358 4.24602 3.26667 4.37327L7.98 9.08661L16.4667 0.602607C16.7167 0.352419 17.0558 0.211795 17.4095 0.21167C17.7632 0.211545 18.1025 0.351929 18.3527 0.60194C18.6029 0.851951 18.7435 1.19111 18.7436 1.5448C18.7437 1.8985 18.6033 2.23775 18.3533 2.48794L8.924 11.9173C8.80024 12.041 8.65326 12.1391 8.49149 12.2059C8.32972 12.2728 8.15636 12.307 7.98134 12.3066Z" fill="#20B549"/>
</svg>
